<mxfile host="65bd71144e">
    <diagram name="ページ1" id="czREmsj9PrVDWHQ4xq6E">
        <mxGraphModel dx="606" dy="1706" grid="1" gridSize="10" guides="1" tooltips="1" connect="1" arrows="1" fold="1" page="1" pageScale="1" pageWidth="827" pageHeight="1169" math="0" shadow="0">
            <root>
                <mxCell id="0"/>
                <mxCell id="1" parent="0"/>
                <mxCell id="YA1lhJLhFK7t6zXE44Bn-18" value="" style="ellipse;shape=cloud;whiteSpace=wrap;html=1;" parent="1" vertex="1">
                    <mxGeometry x="1080" y="160" width="500" height="350" as="geometry"/>
                </mxCell>
                <mxCell id="YA1lhJLhFK7t6zXE44Bn-11" value="" style="rounded=1;whiteSpace=wrap;html=1;" parent="1" vertex="1">
                    <mxGeometry x="80" y="140" width="970" height="410" as="geometry"/>
                </mxCell>
                <mxCell id="YA1lhJLhFK7t6zXE44Bn-1" value="" style="rounded=1;whiteSpace=wrap;html=1;align=center;" parent="1" vertex="1">
                    <mxGeometry x="130" y="220" width="370" height="300" as="geometry"/>
                </mxCell>
                <mxCell id="YA1lhJLhFK7t6zXE44Bn-2" value="&lt;b style=&quot;font-weight:normal;&quot; id=&quot;docs-internal-guid-db4e77e1-7fff-0411-dc9c-463487d667e3&quot;&gt;&lt;img width=&quot;91px;&quot; height=&quot;77px;&quot; src=&quot;https://lh5.googleusercontent.com/goKf_i-FlkNjm5OIbZIIzgCKZYbqo_uVsuRCgmCGlE-ZK-cELEcVq0oLu3yAzKCLm-ailPvGX2GMbU3gK36rDr-SHqoyOwjH8wVK4kim0l1nRhg0GOQESqVaj9e9aoVtUJe_QQSzPJ9XTQ-uN0q0bi7kjQ=s2048&quot;&gt;&lt;/b&gt;" style="text;whiteSpace=wrap;html=1;" parent="1" vertex="1">
                    <mxGeometry x="150" y="240" width="120" height="100" as="geometry"/>
                </mxCell>
                <mxCell id="YA1lhJLhFK7t6zXE44Bn-4" value="&lt;b style=&quot;font-weight:normal;&quot; id=&quot;docs-internal-guid-399e2d26-7fff-bcf3-cfbb-2802505a5841&quot;&gt;&lt;img width=&quot;68px;&quot; height=&quot;78px;&quot; src=&quot;https://lh3.googleusercontent.com/EmQPyAbyrCX-lshmgPZvtRtSyJkbDft8uMqdh4iR8099c1LwLlyIJDckXw7HCSkAsOpMzkKP5haybp7qTLtH-nnk9UE-MKfwCIZa5NcVljYu6Mq0YNcEU5JXxVxa_eF10lHAPS0b_5L48MX3v747CCbCNA=s2048&quot;&gt;&lt;/b&gt;" style="text;whiteSpace=wrap;html=1;" parent="1" vertex="1">
                    <mxGeometry x="165" y="340" width="100" height="100" as="geometry"/>
                </mxCell>
                <mxCell id="YA1lhJLhFK7t6zXE44Bn-5" value="" style="rounded=1;whiteSpace=wrap;html=1;align=center;" parent="1" vertex="1">
                    <mxGeometry x="600" y="220" width="370" height="300" as="geometry"/>
                </mxCell>
                <mxCell id="YA1lhJLhFK7t6zXE44Bn-6" value="&lt;b style=&quot;font-weight:normal;&quot; id=&quot;docs-internal-guid-db4e77e1-7fff-0411-dc9c-463487d667e3&quot;&gt;&lt;img width=&quot;91px;&quot; height=&quot;77px;&quot; src=&quot;https://lh5.googleusercontent.com/goKf_i-FlkNjm5OIbZIIzgCKZYbqo_uVsuRCgmCGlE-ZK-cELEcVq0oLu3yAzKCLm-ailPvGX2GMbU3gK36rDr-SHqoyOwjH8wVK4kim0l1nRhg0GOQESqVaj9e9aoVtUJe_QQSzPJ9XTQ-uN0q0bi7kjQ=s2048&quot;&gt;&lt;/b&gt;" style="text;whiteSpace=wrap;html=1;" parent="1" vertex="1">
                    <mxGeometry x="620" y="240" width="120" height="100" as="geometry"/>
                </mxCell>
                <mxCell id="YA1lhJLhFK7t6zXE44Bn-27" style="edgeStyle=orthogonalEdgeStyle;rounded=0;orthogonalLoop=1;jettySize=auto;html=1;entryX=1;entryY=0.483;entryDx=0;entryDy=0;entryPerimeter=0;endArrow=classic;endFill=1;startArrow=classic;startFill=1;" parent="1" target="YA1lhJLhFK7t6zXE44Bn-1" edge="1">
                    <mxGeometry relative="1" as="geometry">
                        <mxPoint x="600" y="365" as="sourcePoint"/>
                        <mxPoint x="510" y="365" as="targetPoint"/>
                    </mxGeometry>
                </mxCell>
                <mxCell id="YA1lhJLhFK7t6zXE44Bn-7" value="" style="shape=image;verticalLabelPosition=bottom;labelBackgroundColor=default;verticalAlign=top;aspect=fixed;imageAspect=0;image=data:image/png,iVBORw0KGgoAAAANSUhEUgAAAMkAAABdCAYAAAAPMUJQAAAACXBIWXMAAAsSAAALEgHS3X78AAAHhklEQVR4nO2d31XcOBTGxZ59HzqwO4B98xtsBUwqSKgguxUsVBCogKGCTCoA3uYtTAWxO4AK2KM9nxOvmRlZuteWZX+/c+aQMPjftT7pSrpXOnp7ezOEkP38RtsQchiKhBAHFAkhDigSQhxQJIQ4oEgIcUCREOKAIiHEAUVCiAOKhBAHv9NAZEjyrLgxxpx6XPKvsto8x3xJFAkZGiuQM49rHsd+Q3S3CHFAkRDigCIhxAFFQogDioQQBxQJIQ4oEkIcUCSEOKBICHFAkRDigCIhxAFFQogDioQQBxQJIQ4oEkIcUCSEOKBICHEwm8zEPCuOW2mjL7HTQsdAnhXWJvmBlFpro3LOttopEhiuc9pkWW0eQ8+x61gNIIpPxpjlvnTRPCvsjydjzNoYsyqrzUvjuxyFp7MZympTts5/7vMobVsE3INxiR92WeJz0fWksNU32GrdtNWY8LV5F9vta0luPPOQj5r/ybPCFs67LgfC+Pf2mhq1FQrWlTHmY8dDzvC5sosUlNXmCr+3z/CPx6Wvcd0mD353/8uOKMxWNJnnOW7t4gntXwbYZRcX+NzlWWHf2VW7YohJnhUr4fPttJ16nyTPimVXgTSwD/bdFlIUjtBrX8E9CDHUwooiz4pntILREAjkqaw2/3vJ9lxYoeSHsAC1sef6YQum5J1pgGeUCuS+bbsaVZGgcK0Ep/hsC4ev0WGkR9T8C8H1LScooDGFssZ9+LCFC/UTvI9n2LUvbMEshW5OMI0KRSqQT/u+VBMJmvNHrULaVSgNI/m4hy4WPv66JqgRfZ+lMsact/pU9qV/D2iNQrD2esA1B6Px7n0rlCbXhwRitESCm10rCKSmrs27IDXSaIBb5FsjvtoWZIdAfF1eDe6GEoqSQC4bfdC9aLUkfRTUE5fBUagmIRAQ4hadNwc8AvuEmtzhHnpDUSCdugZaIumroO5VOXzgPn3tFLhsCeRY2CfUYgX3Wx0FgdiW90NXgZgEZtyzA8YeQ2GIya6acKXo8kpYYBpBFSWB2JZ37XNQCmEp70aZ4IZpdEi3CueIwX1bIGhZNQYbtkp2udAc8VIUiPdcXJIiwURfKHbW+I+y2hyV1ebU/jTG/InJwBTYN1y5c4y/I1u4ILVNart8EApGck8/URDINlQgRjF268njb48lfRi4XyHDva9Yxv+dm4ZwEDvsvIbLEmswwGXHl10CgU1CW5HbfZNocEvWGCAJ6f/Z1uRYGMKiJZDge1ARSVltOjeraIJ9wjXaLUnoyImzJsH3p3bWPYZQfOzYIvS46y5DoFZEeVa8eIbp1CyF/UdJP0ssEJOIu9WeVAwpENeeTe2gk2IKhNhk20UgNfjbENdL2i8JFci9hkBMovkkvuEilU9hML9alFT6KCYgUtgEVgQhx/QyFOzgv36bVqRyiiLxHdUKbepTGmL27aNtQzqxOMa3NRk6Bu5gHFYIc8hMDMpXGVMIeA9IUhJ8jx163kY9P4npu/NEUgGMvfJQjx+bg0iCfOLYORI9I+lMRwmJ90RVKHMQydDDqjEYsp/gPXAiuJYENaHMQSQfA4PtvEbEIuM7irPIs8J7NhzH+PYxYrpnKkJJUSQhY/VeI1VIA04pBD+ks3rlU3k0cuR9ka5b8DeiJUIRCyVFkYQY/QyhFU6QCxEysxyTEJEsEHLi7HsJk+qko03PCq6vSCgpiiTU6J+xyMPO2rOxYMJX2e0ND2LPQmrbE+Sn7w31wXdlYMv66huWvgvMz1wKT3MTusBHiovTrQWZdydY4eMbaqh6wYdTxBiNIRcjlJvAFtA+89c8K55gj7oSOsdHsnaA2oSsDUzF8lOh736BIFbvaODkWhKEGtwLT3OBAmUDLb8grzxlgRiIROK7nzVs8oB/SwTyqp14hQhuSYtSC8WrRUl1dCulkadBQOWhng0o4KaPqIUYQklSJDD+7QhuZVQIInW18Yow9mVooaQ8TzKWAjE2lkK3S8qrIOenMxCKxO3uLJRkRQL3InaBGB1oZc8j2aXOIx9kAhHRvr0LJekZ954LRKxwCjEYvRlaKJUkjzyUIYSSfFgKXkrumWd/iFf4u0kvWdSDXQ5hh9RPY+1h0rdQJhG7ZV0v5IdfCmvPJ9SGk1jTq2WXPlrGCqusLGPvV9KnUCYV4GgLd1ltjlEofDr19ZI6g7sLQwC75AF22ccTFsfLNWbUtYBQJM+3c1G9o7e3t+gP1xeNLeDq2J96961nRM6W+3ZtQpCj1yY+fQ57aoLQnCXsctohJXrbiFB4nHjW5jsmvWciCv9jHymdKYNCftOsNfdsPfc81m3fhmQ2G4uSw0A4s2ohusIcd0IcUCSEOJiVu4XciK6BbSnluJMemY1IsAZxcglVJD6zcLcwQTSa8XySFpMXieKuwGSmTFokPewKTGbIZEWitEMrIZNuSaa2fTWJxCRFkmfFCos7ECJmciLBUpwUCFFjUiLBKn1fRnArZEJMrSVJba9DkgBTm3GPmTDFCNqJMumkK0I0YBQwIQ4oEkIcUCSEOKBICHFAkRDigCIhxAFFQogDioQQBxQJIQ4oEkIOYYz5F+AguyVhceg2AAAAAElFTkSuQmCC;" parent="1" vertex="1">
                    <mxGeometry x="720" y="330" width="151" height="69.87" as="geometry"/>
                </mxCell>
                <mxCell id="YA1lhJLhFK7t6zXE44Bn-23" style="edgeStyle=orthogonalEdgeStyle;rounded=0;orthogonalLoop=1;jettySize=auto;html=1;startArrow=classic;startFill=1;" parent="1" source="YA1lhJLhFK7t6zXE44Bn-12" target="YA1lhJLhFK7t6zXE44Bn-18" edge="1">
                    <mxGeometry relative="1" as="geometry"/>
                </mxCell>
                <mxCell id="YA1lhJLhFK7t6zXE44Bn-12" value="&lt;b style=&quot;font-weight:normal;&quot; id=&quot;docs-internal-guid-ff9b8243-7fff-0410-aede-a5f112e1ecba&quot;&gt;&lt;img width=&quot;76px;&quot; height=&quot;76px;&quot; src=&quot;https://lh5.googleusercontent.com/biEl5EJgeIGO7pw6_tC5wtdhRSwpH2Tf3CQJ9qumtFUr1477nk58hcsmJrE3LaTgSQT1jzkjDk4G0GVGk2fJG_MMX6CSXzbTx_Tl0nw_GbbIknN0BmF-06VENC-y0ixLfBZrR95LysG7w_PZxk-pvJaG2w=s2048&quot;&gt;&lt;/b&gt;" style="text;whiteSpace=wrap;html=1;" parent="1" vertex="1">
                    <mxGeometry x="1090" y="560" width="110" height="100" as="geometry"/>
                </mxCell>
                <mxCell id="YA1lhJLhFK7t6zXE44Bn-13" value="" style="fontColor=#0066CC;verticalAlign=top;verticalLabelPosition=bottom;labelPosition=center;align=center;html=1;outlineConnect=0;fillColor=#CCCCCC;strokeColor=#6881B3;gradientColor=none;gradientDirection=north;strokeWidth=2;shape=mxgraph.networks.pc;" parent="1" vertex="1">
                    <mxGeometry x="990" y="550" width="100" height="70" as="geometry"/>
                </mxCell>
                <mxCell id="YA1lhJLhFK7t6zXE44Bn-34" style="edgeStyle=orthogonalEdgeStyle;rounded=0;orthogonalLoop=1;jettySize=auto;html=1;entryX=0.554;entryY=0;entryDx=0;entryDy=0;entryPerimeter=0;startArrow=classic;startFill=1;exitX=0.501;exitY=0.95;exitDx=0;exitDy=0;exitPerimeter=0;" parent="1" source="YA1lhJLhFK7t6zXE44Bn-14" target="YA1lhJLhFK7t6zXE44Bn-1" edge="1">
                    <mxGeometry relative="1" as="geometry"/>
                </mxCell>
                <mxCell id="YA1lhJLhFK7t6zXE44Bn-14" value="" style="ellipse;shape=cloud;whiteSpace=wrap;html=1;" parent="1" vertex="1">
                    <mxGeometry x="90" y="-270" width="490" height="340" as="geometry"/>
                </mxCell>
                <mxCell id="YA1lhJLhFK7t6zXE44Bn-15" value="&lt;b style=&quot;font-weight:normal;&quot; id=&quot;docs-internal-guid-ad892900-7fff-33a4-a3af-d276ae2a5339&quot;&gt;&lt;img width=&quot;72px;&quot; height=&quot;72px;&quot; src=&quot;https://lh3.googleusercontent.com/2NCvPjixVxrzgA5WPjo-1a7sh9I1BPmnuIKGS2ojA7H6pK3FGWRp4bwgzv6k7umYk1gtqxSj7guEfbbSYl0RCOjgXVsbchzs7k1o5_fyWzOOSbjBqZ1HvT4wTRVnkymO_fkCSLYaM1piljjGNz2msA_s0g=s2048&quot;&gt;&lt;/b&gt;" style="text;whiteSpace=wrap;html=1;" parent="1" vertex="1">
                    <mxGeometry x="300" y="-130" width="110" height="100" as="geometry"/>
                </mxCell>
                <mxCell id="YA1lhJLhFK7t6zXE44Bn-16" value="&lt;b style=&quot;font-weight:normal;&quot; id=&quot;docs-internal-guid-1adac774-7fff-4a3e-1e8e-20b58e8998dd&quot;&gt;&lt;img width=&quot;76px;&quot; height=&quot;76px;&quot; src=&quot;https://lh4.googleusercontent.com/JibGSSdjfvsAgrhTusfZesizDFSySYLMpDgf4ozPanlmhtnaXOrRQiBPmFJ_hxmieCKwPvHhDzMvM9N7jHdAyEM7dvgeobTupyS1hfwkROm6OLL4-SHXVTnoWp91cjxfqxRJt8Zxg37cHy5iSyoJDXnU2Q=s2048&quot;&gt;&lt;/b&gt;" style="text;whiteSpace=wrap;html=1;" parent="1" vertex="1">
                    <mxGeometry x="190" y="-130" width="110" height="100" as="geometry"/>
                </mxCell>
                <mxCell id="YA1lhJLhFK7t6zXE44Bn-26" style="edgeStyle=orthogonalEdgeStyle;rounded=0;orthogonalLoop=1;jettySize=auto;html=1;startArrow=classic;startFill=1;" parent="1" source="YA1lhJLhFK7t6zXE44Bn-17" target="YA1lhJLhFK7t6zXE44Bn-5" edge="1">
                    <mxGeometry relative="1" as="geometry"/>
                </mxCell>
                <mxCell id="YA1lhJLhFK7t6zXE44Bn-17" value="" style="shape=cylinder3;whiteSpace=wrap;html=1;boundedLbl=1;backgroundOutline=1;size=15;" parent="1" vertex="1">
                    <mxGeometry x="1255" y="280" width="160" height="180" as="geometry"/>
                </mxCell>
                <mxCell id="YA1lhJLhFK7t6zXE44Bn-19" value="&lt;b style=&quot;font-weight:normal;&quot; id=&quot;docs-internal-guid-ff9b8243-7fff-0410-aede-a5f112e1ecba&quot;&gt;&lt;img width=&quot;76px;&quot; height=&quot;76px;&quot; src=&quot;https://lh5.googleusercontent.com/biEl5EJgeIGO7pw6_tC5wtdhRSwpH2Tf3CQJ9qumtFUr1477nk58hcsmJrE3LaTgSQT1jzkjDk4G0GVGk2fJG_MMX6CSXzbTx_Tl0nw_GbbIknN0BmF-06VENC-y0ixLfBZrR95LysG7w_PZxk-pvJaG2w=s2048&quot;&gt;&lt;/b&gt;" style="text;whiteSpace=wrap;html=1;" parent="1" vertex="1">
                    <mxGeometry x="1296" y="340" width="110" height="100" as="geometry"/>
                </mxCell>
                <mxCell id="YA1lhJLhFK7t6zXE44Bn-24" value="webhookでngrokのURLを登録する" style="text;strokeColor=none;align=center;fillColor=none;html=1;verticalAlign=middle;whiteSpace=wrap;rounded=0;fontSize=17;" parent="1" vertex="1">
                    <mxGeometry x="1200" y="240" width="290" height="30" as="geometry"/>
                </mxCell>
                <mxCell id="YA1lhJLhFK7t6zXE44Bn-28" value="docker-compose" style="text;strokeColor=none;align=center;fillColor=none;html=1;verticalAlign=middle;whiteSpace=wrap;rounded=0;fontSize=21;" parent="1" vertex="1">
                    <mxGeometry x="130" y="170" width="170" height="30" as="geometry"/>
                </mxCell>
                <mxCell id="YA1lhJLhFK7t6zXE44Bn-29" value="container A" style="text;strokeColor=none;align=center;fillColor=none;html=1;verticalAlign=middle;whiteSpace=wrap;rounded=0;fontSize=20;" parent="1" vertex="1">
                    <mxGeometry x="250" y="260" width="150" height="30" as="geometry"/>
                </mxCell>
                <mxCell id="YA1lhJLhFK7t6zXE44Bn-31" value="container B" style="text;strokeColor=none;align=center;fillColor=none;html=1;verticalAlign=middle;whiteSpace=wrap;rounded=0;fontSize=20;" parent="1" vertex="1">
                    <mxGeometry x="745.5" y="260" width="144.5" height="30" as="geometry"/>
                </mxCell>
                <mxCell id="YA1lhJLhFK7t6zXE44Bn-35" value="Internet" style="text;strokeColor=none;align=center;fillColor=none;html=1;verticalAlign=middle;whiteSpace=wrap;rounded=0;fontSize=20;" parent="1" vertex="1">
                    <mxGeometry x="240" y="-200" width="80" height="40" as="geometry"/>
                </mxCell>
                <mxCell id="YA1lhJLhFK7t6zXE44Bn-36" value="ngrokを経由してローカルPCのコンテナのポートと通信する" style="text;strokeColor=none;align=center;fillColor=none;html=1;verticalAlign=middle;whiteSpace=wrap;rounded=0;fontSize=20;" parent="1" vertex="1">
                    <mxGeometry x="660" y="420" width="280" height="70" as="geometry"/>
                </mxCell>
                <mxCell id="YA1lhJLhFK7t6zXE44Bn-37" value="" style="shape=image;verticalLabelPosition=bottom;labelBackgroundColor=default;verticalAlign=top;aspect=fixed;imageAspect=0;image=https://upload.wikimedia.org/wikipedia/commons/thumb/3/3c/Flask_logo.svg/2880px-Flask_logo.svg.png;" parent="1" vertex="1">
                    <mxGeometry x="300" y="344.54" width="167.15" height="65.46" as="geometry"/>
                </mxCell>
                <mxCell id="YA1lhJLhFK7t6zXE44Bn-38" value="&lt;b style=&quot;font-weight:normal;&quot; id=&quot;docs-internal-guid-6e740b61-7fff-fda6-cf2e-7c8e38a1dfb8&quot;&gt;&lt;img width=&quot;68px;&quot; height=&quot;68px;&quot; src=&quot;https://lh5.googleusercontent.com/oRZL8Ifk2YcNR2NU5R6gIV-ejsi2L1YSpXUsCvyJSwM-l1k9qRHXMkG_U1IfHxSpfyC4beVUzlE10YZO747VKdqBttZfj40fDsA-akxkL7XRASqrUPzfKoeQMMMohbL_hGMqYi90myU9DkU78LbE09nBFA=s2048&quot;&gt;&lt;/b&gt;" style="text;whiteSpace=wrap;html=1;" parent="1" vertex="1">
                    <mxGeometry x="410" y="-125" width="100" height="90" as="geometry"/>
                </mxCell>
                <mxCell id="YA1lhJLhFK7t6zXE44Bn-39" value="&lt;b style=&quot;font-weight:normal;&quot; id=&quot;docs-internal-guid-fd4f26ff-7fff-39c8-ccf5-116e60c6dad4&quot;&gt;&lt;img width=&quot;68px;&quot; height=&quot;58px;&quot; src=&quot;https://lh3.googleusercontent.com/c9HIaZtTBulZXu4WKSN50e5zxvMM0Ya7Dc9K0tErVM4wCcDdxfNbsVX6IkwOnnpQ1JVuHbaeNmwN2s1kGt80iyL-rIS0-rO_BST1qMcf_9QUV6xObyGDnzdbxN7oLUiowZIit-ei31j4WiBkjZ-oWsHwvg=s2048&quot;&gt;&lt;/b&gt;" style="text;whiteSpace=wrap;html=1;" parent="1" vertex="1">
                    <mxGeometry x="827" y="145" width="100" height="80" as="geometry"/>
                </mxCell>
                <mxCell id="YA1lhJLhFK7t6zXE44Bn-40" value="&lt;b style=&quot;font-weight:normal;&quot; id=&quot;docs-internal-guid-6ed26ac7-7fff-7bb3-27e2-e947a1e7620e&quot;&gt;&lt;img width=&quot;58px;&quot; height=&quot;58px;&quot; src=&quot;https://lh5.googleusercontent.com/Rb7wAqu2ld0zWtmQUtva79oC8hI9CmcJp9BNYOJtsCokUw-Il3bcNJB3fipznV2dm-58bjf5D5pYF0FWOYHCMw0nSe3jet73nLwK5uNQUYDrEhw44XjXmpuRX_FAzyOR6jsqYIaJS8ArR4nWHqMzj-ErCw=s2048&quot;&gt;&lt;/b&gt;" style="text;whiteSpace=wrap;html=1;" parent="1" vertex="1">
                    <mxGeometry x="940" y="145" width="90" height="80" as="geometry"/>
                </mxCell>
                <mxCell id="YA1lhJLhFK7t6zXE44Bn-41" value="DevContainer上でdocker-composeを起動して開発" style="text;strokeColor=none;align=center;fillColor=none;html=1;verticalAlign=middle;whiteSpace=wrap;rounded=0;fontSize=20;" parent="1" vertex="1">
                    <mxGeometry x="545" y="100" width="510" height="30" as="geometry"/>
                </mxCell>
                <mxCell id="YA1lhJLhFK7t6zXE44Bn-42" value="&lt;font style=&quot;font-size: 20px;&quot;&gt;Slack API&lt;/font&gt;" style="text;strokeColor=none;align=center;fillColor=none;html=1;verticalAlign=middle;whiteSpace=wrap;rounded=0;" parent="1" vertex="1">
                    <mxGeometry x="1100" y="290" width="155" height="30" as="geometry"/>
                </mxCell>
                <mxCell id="YA1lhJLhFK7t6zXE44Bn-44" value="&lt;font style=&quot;font-size: 20px;&quot;&gt;各種APIを呼び出す&lt;/font&gt;" style="text;strokeColor=none;align=center;fillColor=none;html=1;verticalAlign=middle;whiteSpace=wrap;rounded=0;" parent="1" vertex="1">
                    <mxGeometry x="315" y="-160" width="230" height="30" as="geometry"/>
                </mxCell>
                <mxCell id="3" value="パッケージ管理ツール: pip → Poetry" style="text;strokeColor=none;align=center;fillColor=none;html=1;verticalAlign=middle;whiteSpace=wrap;rounded=0;" vertex="1" parent="1">
                    <mxGeometry x="165" y="450" width="210" height="30" as="geometry"/>
                </mxCell>
            </root>
        </mxGraphModel>
    </diagram>
</mxfile>